<?xml version="1.0" encoding="utf-8"?>
<!-- Generator: Adobe Illustrator 18.0.0, SVG Export Plug-In . SVG Version: 6.00 Build 0)  -->
<!DOCTYPE svg PUBLIC "-//W3C//DTD SVG 1.1//EN" "http://www.w3.org/Graphics/SVG/1.1/DTD/svg11.dtd">
<svg version="1.1" id="Livello_1" xmlns="http://www.w3.org/2000/svg" xmlns:xlink="http://www.w3.org/1999/xlink" x="0px" y="0px"
	 viewBox="0 0 300 300" enable-background="new 0 0 300 300" xml:space="preserve">
<rect x="7" y="7" fill="#FFFFFF" width="286" height="286"/>
<g>
	<path fill="#E8E8E8" d="M0,0v300h300V0H0z M293,293H7V7h286V293z"/>
</g>
<path id="language-8-icon" fill="#57AA27" d="M152.2,129.8c1.6,0.9,2.8,2.2,3.4,3.5l6.6-1.7c-1.2-3.4-3.9-6.4-7.8-8.3
	c0.4-1.5,0.6-2.5,0.8-3.6l-6.6-1.3c-0.1,0.6-0.3,1.6-0.7,3c-2.2-0.3-4.6-0.4-7-0.1c0.1-1.6,0.2-3.2,0.3-4.7h7.4v-6.2h-6.5
	c0.3-1.6,0.6-2.5,0.9-3.4l-6.4-1.9c-0.5,1.6-0.9,3.1-1.3,5.4h-7.3v6.2h6.5c-0.2,2-0.3,4.1-0.3,6.2c-15.7,5.8-11.7,23,0.7,21.9
	C143.3,144,148.9,137.6,152.2,129.8z M134.3,130.1c0.2,2.8,0.5,5.4,0.9,7.8C129.3,139,129.1,133.1,134.3,130.1z M141.5,134.4
	c-0.3-1.9-0.5-4-0.6-6.3c1.6-0.2,3.2-0.2,4.7-0.1C144.6,130.3,143.3,132.6,141.5,134.4z M175.4,162.4l4,11.4h-8L175.4,162.4z
	 M124.3,186.8c-9,5.4-28.1,10.8-41.5,13.2c5.1-10.2,10.8-24.1,10.5-33.8c-6.9-8.3-10.8-19-10.8-29.9c0-30.7,29.8-53.1,63.1-53.1
	c34.4,0,65,24,63,55.8c-4-2.9-8.5-5.3-13.3-7.1c-2.8-21.3-26-35.6-49.7-35.6c-25.6,0-50,16.5-50,40c0,13.5,7.7,21.4,10.6,25
	c0.5,5.3-0.3,13-1.9,19.8c10.8-3.6,13.2-5.4,17.9-8.3C122.1,177.5,122.8,182.1,124.3,186.8z M210.2,194c4.7-5.6,7.3-12.8,7.3-20.2
	c0-20.7-20.2-35.9-42.7-35.9c-22.4,0-42.7,15-42.7,35.9c0,21.7,24,42,56.8,33.9c6,3.7,19.1,7.4,28.4,9.1
	C213.8,210,210,200.6,210.2,194z M184,187.1l-2.9-8.2h-11.6l-2.9,8.2H160l12.2-31.8h6.4l12.3,31.8H184z"/>
<g>
	<path fill="#A5A5A5" d="M31.9,247V53.3h44.5v13.4H48.4v166.9h27.9V247H31.9z"/>
	<path fill="#A5A5A5" d="M268.1,53V247h-44.5v-13.4h27.9V66.4h-27.9V53H268.1z"/>
</g>
</svg>
